<svg id="logo-plus-slogan" xmlns="http://www.w3.org/2000/svg" viewBox="0 0 130 64">
    <defs>
        <style>.cls-1,.cls-2{fill:#fff;}.cls-2{font-size:14px;font-family:PingFangSC-Semibold-GBpc-EUC-H, PingFang SC;}.cls-3{font-weight:700;}.cls-4{font-size:8px;font-family:PingFangSC-Thin-GBpc-EUC-H, PingFang SC;}</style>
    </defs>
    <title>白logo白文字</title>
    <path class="cls-1" d="M32.53,33.51c-15.81,4.18-17.39-1.31-14.8-6.64,6.47,3,12.7,1.35,14.93-.27,6.24-4.52,5.06-9.68.23-11.68a15.38,15.38,0,0,0-9.17-.41A26.84,26.84,0,0,0,14.59,19l-.2-.27a2.17,2.17,0,0,0-3.19-.17A2.93,2.93,0,0,0,11.14,22l.15.16a11.67,11.67,0,0,0-2,10.25c2.78,12,22.94,4.56,24.46,3.92C39.12,34.06,36.68,32.41,32.53,33.51ZM26.1,19C32.42,16.18,35,21.54,29,23.74a11.23,11.23,0,0,1-8.88-.38A18.15,18.15,0,0,1,26.1,19Z"/>
    <path class="cls-1" d="M11.34,46.37l-1.21.1a.82.82,0,0,0-.51.22.94.94,0,0,1,.21.59,1.06,1.06,0,0,1-1.07,1l-4,.06a1,1,0,1,1,0-2.06l2.78,0a2.82,2.82,0,0,1,1.64-1.59,1.75,1.75,0,0,0-.46,0l-4,.06A2.64,2.64,0,1,0,4.81,50l4-.06a2.73,2.73,0,0,0,2.73-2.69A2.61,2.61,0,0,0,11.34,46.37Z"/>
    <path class="cls-1" d="M16.36,46l-1.1.12a.8.8,0,0,0-.5.25,1,1,0,0,1,.2.51,1,1,0,0,1-1,1l-2.38.18a2.82,2.82,0,0,1-.73,1.21,2.93,2.93,0,0,1-.52.41l3.75-.28a2.57,2.57,0,0,0,2.42-2.69A2.36,2.36,0,0,0,16.36,46Z"/>
    <path class="cls-1" d="M14.21,44.45a3.53,3.53,0,0,0-.46,0L10,44.73a2.56,2.56,0,0,0-2.42,2.68,2.31,2.31,0,0,0,.16.7l1,0a.87.87,0,0,0,.6-.24l0,0a.89.89,0,0,1-.21-.53,1,1,0,0,1,.95-1l2.63-.19A2.7,2.7,0,0,1,14.21,44.45Z"/>
    <path class="cls-1" d="M21.21,45.37l-1.08.18a.75.75,0,0,0-.45.25.86.86,0,0,1,.23.51,1,1,0,0,1-.87,1l-2.36.26a2.7,2.7,0,0,1-.6,1.1,2.85,2.85,0,0,1-.6.5h.13l3.59-.39a2.48,2.48,0,0,0,2.24-2.67A2.29,2.29,0,0,0,21.21,45.37Z"/>
    <path class="cls-1" d="M19.07,44a2.55,2.55,0,0,0-.39,0l-3.6.39A2.39,2.39,0,0,0,13,47.76l1-.07a.83.83,0,0,0,.55-.27l0,0a.87.87,0,0,1-.2-.47,1,1,0,0,1,.87-1l2.5-.28A2.56,2.56,0,0,1,19.07,44Z"/>
    <path class="cls-1" d="M25.78,44.58l-1.11.27a.69.69,0,0,0-.33.19.84.84,0,0,1,.23.47.9.9,0,0,1-.77,1l-2.19.37a2.49,2.49,0,0,1-.56,1.14,2.56,2.56,0,0,1-.48.45h.05L24,47.92a2.36,2.36,0,0,0,2-2.66A2.3,2.3,0,0,0,25.78,44.58Z"/>
    <path class="cls-1" d="M20.1,45.35l2.34-.4a2.48,2.48,0,0,1,1.33-1.58,2.1,2.1,0,0,0-.5,0l-3.4.57a2.35,2.35,0,0,0-2,2.66,1.82,1.82,0,0,0,.2.61l.94-.1a.8.8,0,0,0,.52-.27v0a.88.88,0,0,1-.23-.46A.92.92,0,0,1,20.1,45.35Z"/>
    <path class="cls-1" d="M30.22,44.15a2.18,2.18,0,0,0-.29-.66L29,43.8a.69.69,0,0,0-.36.27.91.91,0,0,1,.26.42.87.87,0,0,1-.66,1l-2,.5a2.53,2.53,0,0,1-.47,1.08,2.56,2.56,0,0,1-.52.52l.12,0,3.18-.79A2.23,2.23,0,0,0,30.22,44.15Z"/>
    <path class="cls-1" d="M24.63,44.66l2.25-.55a2.3,2.3,0,0,1,1.06-1.59,2.34,2.34,0,0,0-.45.07l-3.18.79A2.22,2.22,0,0,0,22.62,46a1.76,1.76,0,0,0,.18.47l1-.16a.77.77,0,0,0,.45-.24.75.75,0,0,1-.24-.4A.86.86,0,0,1,24.63,44.66Z"/>
    <path class="cls-1" d="M34.16,42.78a1.88,1.88,0,0,0-.3-.58l-.86.31a.61.61,0,0,0-.35.3.76.76,0,0,1,.26.37.82.82,0,0,1-.55,1l-1.89.61a2.43,2.43,0,0,1-.36,1.1,2.82,2.82,0,0,1-.38.46l.07,0,2.95-1A2.1,2.1,0,0,0,34.16,42.78Z"/><path class="cls-1" d="M28.92,43.63,31,43a2.19,2.19,0,0,1,.86-1.56,2.62,2.62,0,0,0-.38.09l-2.94.95a2.12,2.12,0,0,0-1.42,2.62,2.16,2.16,0,0,0,.24.48l.81-.2A.73.73,0,0,0,28.6,45v0a.76.76,0,0,1-.24-.36A.82.82,0,0,1,28.92,43.63Z"/><path class="cls-1" d="M37.9,41.38a1.84,1.84,0,0,0-.33-.56l-.92.38a.61.61,0,0,0-.26.21.75.75,0,0,1,.33.39.79.79,0,0,1-.49,1l-1.8.64a2,2,0,0,1-.27,1,2.62,2.62,0,0,1-.34.48h0l2.77-1A2,2,0,0,0,37.9,41.38Z"/><path class="cls-1" d="M32.94,42.35l1.82-.66a2.13,2.13,0,0,1,.8-1.53l-.25.07-2.77,1a2,2,0,0,0-1.27,2.53,2.09,2.09,0,0,0,.28.51L32.3,44a.69.69,0,0,0,.39-.32v0a.82.82,0,0,1-.26-.34A.79.79,0,0,1,32.94,42.35Z"/><path class="cls-1" d="M44.1,37.84a1.79,1.79,0,0,0-2.46-.49l-2.2,1.4a1.78,1.78,0,0,0-.61,2.43,1.71,1.71,0,0,0,.21.26l.65-.27a.65.65,0,0,0,.34-.35.58.58,0,0,1-.26-.23.69.69,0,0,1,.23-1l2.2-1.4a.68.68,0,1,1,.73,1.14l-1.39.88a2,2,0,0,1-.33,1.46l.08,0,2.2-1.4A1.78,1.78,0,0,0,44.1,37.84Z"/><path class="cls-1" d="M41.27,39.88a1.87,1.87,0,0,0-.4-.59l-.79.5a.53.53,0,0,0-.2.22.72.72,0,0,1,.29.33.74.74,0,0,1-.42,1L38.18,42A2,2,0,0,1,38,43a2.06,2.06,0,0,1-.31.46l2.55-1.06A1.92,1.92,0,0,0,41.27,39.88Z"/><path class="cls-1" d="M36.59,41.05l1.83-.77s0-.09,0-.13a2,2,0,0,1,.68-1.35,3,3,0,0,0-.37.11L36.15,40a1.92,1.92,0,0,0-1.09,2.48,1.89,1.89,0,0,0,.28.45l.83-.3a.59.59,0,0,0,.32-.26.71.71,0,0,1-.33-.35A.76.76,0,0,1,36.59,41.05Z"/><text class="cls-2" transform="translate(53.78 28.58)"><tspan class="cls-3">映e融</tspan><tspan class="cls-4"><tspan x="0" y="16">构筑生态 服务链条</tspan></tspan></text></svg>